<mxfile host="app.diagrams.net" modified="2021-08-20T04:02:56.161Z" agent="5.0 (Windows NT 10.0; Win64; x64) AppleWebKit/537.36 (KHTML, like Gecko) Chrome/91.0.4472.164 Safari/537.36 OPR/77.0.4054.275" etag="-Zq_kgxTA134Wjk315_k" version="14.9.8" type="github">
  <diagram id="gTweWXTC8vvj1BV2A7Zl" name="Page-1">
    <mxGraphModel dx="475" dy="261" grid="1" gridSize="10" guides="1" tooltips="1" connect="1" arrows="1" fold="1" page="1" pageScale="1" pageWidth="850" pageHeight="1100" math="0" shadow="0">
      <root>
        <mxCell id="0" />
        <mxCell id="1" parent="0" />
        <mxCell id="ZAz1ZDLrlYL87z6icxv_-1" value="STM32F4" style="whiteSpace=wrap;html=1;aspect=fixed;" vertex="1" parent="1">
          <mxGeometry x="380" y="240" width="80" height="80" as="geometry" />
        </mxCell>
        <mxCell id="ZAz1ZDLrlYL87z6icxv_-6" value="Nút nhấn" style="rounded=0;whiteSpace=wrap;html=1;" vertex="1" parent="1">
          <mxGeometry x="210" y="240" width="120" height="30" as="geometry" />
        </mxCell>
        <mxCell id="ZAz1ZDLrlYL87z6icxv_-7" value="USB" style="rounded=0;whiteSpace=wrap;html=1;" vertex="1" parent="1">
          <mxGeometry x="210" y="290" width="120" height="30" as="geometry" />
        </mxCell>
        <mxCell id="ZAz1ZDLrlYL87z6icxv_-8" value="Loa" style="rounded=0;whiteSpace=wrap;html=1;" vertex="1" parent="1">
          <mxGeometry x="510" y="255" width="90" height="50" as="geometry" />
        </mxCell>
        <mxCell id="ZAz1ZDLrlYL87z6icxv_-9" value="" style="endArrow=classic;html=1;entryX=-0.022;entryY=0.19;entryDx=0;entryDy=0;exitX=1;exitY=0.5;exitDx=0;exitDy=0;entryPerimeter=0;" edge="1" parent="1" source="ZAz1ZDLrlYL87z6icxv_-6" target="ZAz1ZDLrlYL87z6icxv_-1">
          <mxGeometry width="50" height="50" relative="1" as="geometry">
            <mxPoint x="330" y="260" as="sourcePoint" />
            <mxPoint x="380" y="210" as="targetPoint" />
            <Array as="points" />
          </mxGeometry>
        </mxCell>
        <mxCell id="ZAz1ZDLrlYL87z6icxv_-10" value="" style="endArrow=classic;html=1;entryX=-0.022;entryY=0.19;entryDx=0;entryDy=0;exitX=1;exitY=0.5;exitDx=0;exitDy=0;entryPerimeter=0;" edge="1" parent="1">
          <mxGeometry width="50" height="50" relative="1" as="geometry">
            <mxPoint x="330" y="304.52" as="sourcePoint" />
            <mxPoint x="378.24" y="304.72" as="targetPoint" />
            <Array as="points" />
          </mxGeometry>
        </mxCell>
        <mxCell id="ZAz1ZDLrlYL87z6icxv_-11" value="" style="endArrow=classic;html=1;entryX=-0.022;entryY=0.19;entryDx=0;entryDy=0;exitX=1;exitY=0.5;exitDx=0;exitDy=0;entryPerimeter=0;" edge="1" parent="1">
          <mxGeometry width="50" height="50" relative="1" as="geometry">
            <mxPoint x="460" y="279.76" as="sourcePoint" />
            <mxPoint x="508.24" y="279.96000000000004" as="targetPoint" />
            <Array as="points" />
          </mxGeometry>
        </mxCell>
      </root>
    </mxGraphModel>
  </diagram>
</mxfile>
